<svg fill="#000000" version="1.1" id="Capa_1" xmlns="http://www.w3.org/2000/svg" xmlns:xlink="http://www.w3.org/1999/xlink" 
	 width="800px" height="800px" viewBox="0 0 46.418 46.418"
	 xml:space="preserve">
<g>
	<path d="M41.553,2.893H4.865C2.177,2.893,0,5.071,0,7.758v24.042c0,2.688,2.178,4.863,4.865,4.863h27.874l5.354,5.418
		c0.933,0.942,2.187,1.444,3.462,1.444c0.62,0,1.25-0.118,1.848-0.364c1.824-0.75,3.016-2.527,3.016-4.5V7.758
		C46.418,5.07,44.24,2.893,41.553,2.893z M25.4,29.605c0,1.67-1.287,2.959-3.025,2.959c-1.74,0-3.027-1.289-3.027-2.959v-0.069
		c0-1.668,1.288-2.957,3.027-2.957c1.738,0,3.025,1.289,3.025,2.957V29.605z M31.488,14.963c0,4.415-3.062,6.227-6.854,6.99
		l-0.104,0.626c-0.141,0.903-0.869,1.705-1.878,1.705h-0.277c-1.009,0-1.74-0.769-1.88-1.705l-0.347-2.365
		c-0.174-1.149,0.487-1.948,1.601-2.088c3.025-0.382,4.417-1.323,4.417-3.028v-0.066c0-1.564-1.183-2.471-3.201-2.471
		c-1.496,0-2.783,0.453-4.035,1.392c-0.418,0.313-0.975,0.558-1.565,0.558c-1.322,0-2.437-1.115-2.437-2.436
		c0-0.664,0.279-1.357,0.905-1.879c1.844-1.532,4.175-2.508,7.236-2.508c5.009,0,8.418,2.578,8.418,7.205v0.07H31.488z"/>
</g>
</svg>